<svg xmlns="http://www.w3.org/2000/svg" viewBox="0 0 400 600" fill="none">
  <rect width="400" height="600" fill="#1a0600"/>
  <path d="M0 420 Q100 380 200 400 T400 390 L400 600 L0 600Z" fill="#0d2840" opacity="0.9"/>
  <path d="M0 440 Q120 410 240 430 T400 420 L400 600 L0 600Z" fill="#143050" opacity="0.7"/>
  <circle cx="320" cy="90" r="45" fill="#D4A017" opacity="0.35"/>
  <path d="M180 380 C200 300 240 220 280 160 C300 130 310 110 300 90" stroke="#FF6B00" stroke-width="3" stroke-linecap="round"/>
  <ellipse cx="175" cy="385" rx="28" ry="38" fill="#C4890A" opacity="0.85"/>
  <path d="M155 360 Q175 320 195 350" stroke="#F5E6A3" stroke-width="2" fill="none"/>
  <path d="M160 400 L150 430 M190 400 L200 430" stroke="#C4890A" stroke-width="3" stroke-linecap="round"/>
  <path d="M120 200 Q80 250 60 320 Q50 360 70 400" stroke="#D4A017" stroke-width="1.5" opacity="0.4" stroke-dasharray="6 8"/>
  <text x="200" y="560" text-anchor="middle" fill="#D4A017" font-family="serif" font-size="14" opacity="0.6">8.A&M0 2(</text>
</svg>
