<svg xmlns="http://www.w3.org/2000/svg" viewBox="0 0 400 600" fill="none">
  <rect width="400" height="600" fill="#180808"/>
  <rect x="50" y="200" width="300" height="280" rx="4" fill="#2a1010" stroke="#8B2020" stroke-width="2"/>
  <path d="M70 200 L90 150 L310 150 L330 200" fill="#3a1818"/>
  <path d="M100 480 Q150 350 200 300 Q250 350 300 480" fill="#FF4500" opacity="0.3"/>
  <path d="M120 460 Q170 340 200 310 Q230 340 280 460" fill="#FF6B00" opacity="0.5"/>
  <path d="M140 440 Q180 330 200 320 Q220 330 260 440" fill="#FFB300" opacity="0.6"/>
  <ellipse cx="200" cy="400" rx="25" ry="35" fill="#C4890A" opacity="0.9"/>
  <path d="M200 365 Q220 350 240 370" stroke="#FF6B00" stroke-width="4" stroke-linecap="round"/>
  <circle cx="245" cy="368" r="8" fill="#FFB300" opacity="0.9"/>
  <path d="M60 420 Q30 350 50 280" stroke="#FF6B00" stroke-width="2" opacity="0.4" stroke-dasharray="5 7"/>
  <text x="200" y="560" text-anchor="middle" fill="#FF6B00" font-family="serif" font-size="14" opacity="0.7">2> &9(</text>
</svg>
