<svg xmlns="http://www.w3.org/2000/svg" viewBox="0 0 400 600" fill="none">
  <rect width="400" height="600" fill="#121008"/>
  <path d="M30 450 Q60 300 100 250 Q140 200 180 230" stroke="#3a6020" stroke-width="8" stroke-linecap="round"/>
  <path d="M180 230 Q220 180 260 200 Q300 220 340 280" stroke="#4a7028" stroke-width="6" stroke-linecap="round"/>
  <circle cx="100" cy="240" r="35" fill="#5a9030" opacity="0.7"/>
  <circle cx="260" cy="210" r="40" fill="#6aaa40" opacity="0.6"/>
  <circle cx="180" cy="200" r="30" fill="#FF6B00" opacity="0.8"/>
  <circle cx="200" cy="195" r="25" fill="#FFB300" opacity="0.9"/>
  <circle cx="220" cy="205" r="28" fill="#E53935" opacity="0.8"/>
  <ellipse cx="200" cy="420" rx="30" ry="40" fill="#C4890A" opacity="0.85"/>
  <path d="M175 395 L200 360 L225 395" stroke="#F5E6A3" stroke-width="2" fill="none"/>
  <path d="M160 440 L140 480 M240 440 L260 480" stroke="#8B5E0A" stroke-width="3" stroke-linecap="round"/>
  <path d="M120 350 L280 350" stroke="#D4A017" stroke-width="1" stroke-dasharray="4 6" opacity="0.4"/>
  <text x="200" y="560" text-anchor="middle" fill="#D4A017" font-family="serif" font-size="14" opacity="0.6">+2 	&M/>(</text>
</svg>
