<svg xmlns="http://www.w3.org/2000/svg" viewBox="0 0 400 600" fill="none">
  <rect width="400" height="600" fill="#0d1808"/>
  <ellipse cx="200" cy="520" rx="180" ry="40" fill="#1a3010" opacity="0.8"/>
  <path d="M40 520 Q80 200 120 180 Q160 160 200 200 Q240 160 280 180 Q320 200 360 520" fill="#1e3a12" stroke="#4a7a30" stroke-width="1.5"/>
  <circle cx="130" cy="280" r="22" fill="#2d5a1a" stroke="#6aaa40" stroke-width="1"/>
  <circle cx="270" cy="260" r="18" fill="#2d5a1a" stroke="#6aaa40" stroke-width="1"/>
  <circle cx="200" cy="220" r="25" fill="#2d5a1a" stroke="#6aaa40" stroke-width="1"/>
  <ellipse cx="200" cy="400" rx="22" ry="30" fill="#F5E6A3" opacity="0.9"/>
  <path d="M185 375 L200 350 L215 375" stroke="#D4A017" stroke-width="2" fill="none"/>
  <ellipse cx="280" cy="410" rx="20" ry="28" fill="#C4890A" opacity="0.85"/>
  <path d="M270 390 L280 365 L290 390" stroke="#F5E6A3" stroke-width="1.5" fill="none"/>
  <path d="M240 400 Q260 380 280 400" stroke="#FF6B00" stroke-width="1" opacity="0.5"/>
  <text x="200" y="560" text-anchor="middle" fill="#6aaa40" font-family="serif" font-size="14" opacity="0.7">6K 5>?></text>
</svg>
